<?xml version="1.0" encoding="utf-8"?>
<!-- Generator: Adobe Illustrator 16.0.0, SVG Export Plug-In . SVG Version: 6.00 Build 0)  -->
<!DOCTYPE svg PUBLIC "-//W3C//DTD SVG 1.1//EN" "http://www.w3.org/Graphics/SVG/1.1/DTD/svg11.dtd">
<svg version="1.1" id="Layer_1" xmlns="http://www.w3.org/2000/svg" xmlns:xlink="http://www.w3.org/1999/xlink" x="0px" y="0px"
	 width="790.87px" height="205px" viewBox="0 0 790.87 205" enable-background="new 0 0 790.87 205" xml:space="preserve">
<g>
	<path d="M50.48,18.057c18.491,0,33.48,14.99,33.48,33.48c0,18.491-14.989,33.48-33.48,33.48C31.99,85.018,17,70.029,17,51.538
		C17,33.047,31.99,18.057,50.48,18.057L50.48,18.057z"/>
	<path d="M154.159,121.737c18.491,0,33.48,14.988,33.48,33.479c0,18.49-14.989,33.48-33.48,33.48c-18.49,0-33.48-14.99-33.48-33.48
		C120.679,136.726,135.669,121.737,154.159,121.737L154.159,121.737z"/>
	<path d="M178.002,27.823l0.005-0.005c-0.031-0.031-0.064-0.06-0.095-0.09c-0.031-0.032-0.059-0.064-0.091-0.096l-0.004,0.005
		c-13.108-12.908-34.195-12.851-47.226,0.181c-20.957,20.956-15.3,49.937-33.757,68.665l-2.167,2.166
		c-18.547,17.318-47.195,12.347-67.849,33.001c-13.032,13.03-13.088,34.117-0.181,47.226l-0.005,0.005
		c0.031,0.031,0.064,0.06,0.095,0.09c0.031,0.031,0.06,0.064,0.09,0.096l0.005-0.006c13.108,12.908,34.195,12.852,47.226-0.181
		c20.956-20.956,15.3-49.936,33.757-68.664l2.167-2.167c18.547-17.318,47.195-12.345,67.849-33
		C190.853,62.018,190.91,40.93,178.002,27.823L178.002,27.823z"/>
	<path d="M285.033,155.189h17.076V67.913h30.211V51.566h-77.352v16.346h30.065V155.189L285.033,155.189z M323.123,118.702
		c0,22.184,15.909,37.946,38.092,37.946c15.325,0,26.708-6.568,33.276-16.931l-12.259-8.756
		c-3.795,6.421-10.654,11.091-20.871,11.091c-12.113,0-21.746-7.881-22.475-19.848h57.356c0.146-2.335,0.146-3.649,0.146-5.254
		c0-23.499-16.054-36.196-35.172-36.196C339.032,80.755,323.123,97.248,323.123,118.702L323.123,118.702z M360.632,94.329
		c9.34,0,17.805,5.692,19.556,16.201h-40.573C341.805,99.729,351.291,94.329,360.632,94.329L360.632,94.329z M409.23,155.189h16.054
		V51.538H409.23V155.189L409.23,155.189z M441.775,155.189h16.054v-46.85c3.211-7.589,10.8-11.238,17.222-11.238
		c2.481,0,4.816,0.292,6.275,0.876l2.335-15.616c-1.751-0.438-4.378-0.876-7.443-0.876c-8.173,0-15.615,4.962-18.389,10.508v-9.778
		h-16.054V155.189L441.775,155.189z M543.792,148.329v6.86h16.054V82.215h-16.054v6.713c-5.107-5.254-12.698-8.173-21.308-8.173
		c-21.601,0-36.341,17.368-36.341,37.947c0,20.578,14.74,37.946,36.341,37.946C531.094,156.648,538.685,153.729,543.792,148.329
		L543.792,148.329z M502.635,118.702c0-12.843,8.903-23.352,21.746-23.352c9.341,0,15.616,4.378,19.411,10.07v26.416
		c-3.795,5.838-10.07,10.216-19.411,10.216C511.538,142.053,502.635,131.545,502.635,118.702L502.635,118.702z M630.482,148.329
		v6.86h16.054V82.215h-16.054v6.713c-5.108-5.254-12.697-8.173-21.309-8.173c-21.6,0-36.341,17.368-36.341,37.947
		c0,20.578,14.741,37.946,36.341,37.946C617.785,156.648,625.374,153.729,630.482,148.329L630.482,148.329z M589.325,118.702
		c0-12.843,8.903-23.352,21.746-23.352c9.341,0,15.616,4.378,19.411,10.07v26.416c-3.795,5.838-10.07,10.216-19.411,10.216
		C598.229,142.053,589.325,131.545,589.325,118.702L589.325,118.702z M756.14,155.189h16.055v-43.492
		c0-17.953-9.633-30.942-28.46-30.942c-9.924,0-18.974,3.795-24.081,10.8c-4.816-6.859-12.26-10.8-21.017-10.8
		c-7.297,0-15.032,2.773-19.41,8.319v-6.859h-16.055v72.974h16.055v-49.33c2.627-6.131,8.61-10.363,15.762-10.363
		c9.779,0,14.741,7.589,14.741,18.973v40.72h16.054v-43.492c0-1.606-0.146-3.065-0.438-4.671c2.627-6.86,8.611-11.53,16.2-11.53
		c9.778,0,14.595,7.589,14.595,18.973V155.189L756.14,155.189z"/>
</g>
</svg>
