<?xml version="1.0" encoding="utf-8"?>
<!-- Generator: Adobe Illustrator 16.0.0, SVG Export Plug-In . SVG Version: 6.00 Build 0)  -->
<!DOCTYPE svg PUBLIC "-//W3C//DTD SVG 1.1//EN" "http://www.w3.org/Graphics/SVG/1.1/DTD/svg11.dtd">
<svg version="1.1" id="Layer_1" xmlns="http://www.w3.org/2000/svg" xmlns:xlink="http://www.w3.org/1999/xlink" x="0px" y="0px"
	 width="790.869px" height="790.871px" viewBox="0 0 790.869 790.871" enable-background="new 0 0 790.869 790.871"
	 xml:space="preserve">
<g>
	<path fill="#FC5462" d="M752.325,676.524L444.342,153.181c-10.494-17.642-28.745-28.136-48.974-28.136
		c-20.076,0-38.479,10.494-48.82,28.136L38.566,676.524c-10.799,18.251-10.951,40.152-0.457,58.556
		c10.342,17.946,28.745,28.745,49.277,28.745h616.118c20.531,0,38.935-10.799,49.125-28.745
		C763.276,716.677,763.123,694.775,752.325,676.524z M364.049,350.98h51.42v48.471L404.448,535.1H375.07l-11.021-135.649V350.98z
		 M409.223,614.755c-5.384,5.51-11.815,8.272-19.278,8.272c-7.471,0-13.902-2.763-19.286-8.272
		c-5.392-5.511-8.08-12.075-8.08-19.725c0-7.634,2.688-14.214,8.08-19.724c5.384-5.511,11.815-8.273,19.286-8.273
		c7.463,0,13.895,2.763,19.278,8.273c5.385,5.51,8.08,12.09,8.08,19.724C417.303,602.679,414.608,609.244,409.223,614.755z"/>
</g>
</svg>
