<svg width="512" height="512" xmlns="http://www.w3.org/2000/svg">

 <g>
  <title>background</title>
  <rect fill="none" id="canvas_background" height="402" width="582" y="-1" x="-1"/>
 </g>
 <g>
  <title>Layer 1</title>
  <path id="svg_1" fill="#69afb7" d="m256,6.998c-137.533,0 -249,111.467 -249,249c0,137.534 111.467,249 249,249s249,-111.467 249,-249c0,-137.534 -111.467,-249 -249,-249zm0,478.08c-126.309,0 -229.08,-102.771 -229.08,-229.081c0,-126.31 102.771,-229.08 229.08,-229.08c126.31,0 229.08,102.771 229.08,229.08c0,126.31 -102.77,229.081 -229.08,229.081z"/>
  <polygon id="svg_2" points="384.235,158.192 216.919,325.518 127.862,236.481 113.72,250.624 216.919,353.803 398.28,172.334   " fill="#69afb7"/>
 </g>
</svg>